<?xml version="1.0" encoding="utf-8"?>
<!-- Generator: Adobe Illustrator 16.0.0, SVG Export Plug-In . SVG Version: 6.00 Build 0)  -->
<!DOCTYPE svg PUBLIC "-//W3C//DTD SVG 1.1//EN" "http://www.w3.org/Graphics/SVG/1.1/DTD/svg11.dtd">
<svg version="1.1" id="Layer_1" xmlns="http://www.w3.org/2000/svg" xmlns:xlink="http://www.w3.org/1999/xlink" x="0px" y="0px"
	 width="612px" height="170px" viewBox="0 0 612 170" enable-background="new 0 0 612 170" xml:space="preserve">
<path fill="#090909" d="M205.62,82.604c2.648-39.41,34.495-69.44,72.633-69.287c36.863,0.149,69.322,29.662,72.322,65.754
	c3.223,38.781-22.868,72.764-60.194,78.398c-39.755,6.002-74.889-17.361-83.381-55.797C205.698,95.779,206.003,89.533,205.62,82.604
	 M331.816,99.509c4.36-22.815-0.776-42.844-19.179-57.714c-16.665-13.465-35.903-15.582-55.741-7.931
	c-23.082,8.901-37.545,34.768-33.87,59.172c4.103,27.236,24.33,46.639,50.875,48.802
	C300.302,143.988,322.427,128.301,331.816,99.509z"/>
<path fill="#0E0E0E" d="M544.86,139.356c17.223,0.001,33.438,0.001,50.104,0.001c0,5.637,0,10.254,0,15.568
	c-24.246,0-48.536,0-73.56,0c0-45.699,0-91.626,0-138.042c24.502,0,48.779,0,73.547,0c0,4.974,0,9.591,0,15.188
	c-18.504,0-37.017,0-56.091,0c0,13.354,0,25.744,0,38.959c17.893,0,35.75,0,54.224,0c0,5.646,0,10.496,0,16.192
	c-18.059,0-35.921,0-54.792,0c0,16.68-0.128,32.546,0.24,48.4C538.563,136.909,541.999,138.113,544.86,139.356z"/>
<path fill="#080808" d="M439.14,137.737c-3.354,8.246-6.407,15.765-10.286,25.311c-20.408-49.5-40.181-97.452-60.028-145.594
	c18.125-2.57,18.147-2.58,24.329,12.833c11.565,28.844,23.103,57.7,35.565,88.837c6.473-15.947,12.109-29.735,17.664-43.558
	c5.936-14.767,11.773-29.57,17.686-44.344c6.194-15.485,6.212-15.479,24.704-14.19C472.195,57.346,455.816,97.179,439.14,137.737z"
	/>
<path fill="#020202" d="M145.805,83.96c0,18.674,0,36.329,0,55.209c13.933,0,27.633,0,41.706,0c0,5.87,0,10.517,0,15.785
	c-19.381,0-38.849,0-58.734,0c0-45.958,0-91.658,0-137.931c5.391,0,10.654,0,17.029,0C145.805,38.984,145.805,60.962,145.805,83.96z
	"/>
<path fill="#0D0D0D" d="M38.504,21.268c0.005,44.986,0.005,89,0.005,133.682c-5.807,0-11.067,0-17.102,0
	c0-45.548,0-91.397,0-139.963C27.437,16.857,32.967,18.576,38.504,21.268z"/>
<path fill="#FCFCFC" d="M233.743,81.159"/>
<path fill="#FCFCFC" d="M269.046,88.59"/>
<path fill="#FCFCFC" d="M252.934,86.02c-0.26-0.287-0.497-0.595-0.733-0.901c0.182,0.095,0.363,0.188,0.67,0.56
	C252.996,85.953,252.958,86,252.934,86.02z"/>
<path fill="#FCFCFC" d="M292.813,81.014C292.691,81.087,292.935,80.938,292.813,81.014z"/>
<path fill="#FCFCFC" d="M270.366,81.002C270.253,81.07,270.479,80.936,270.366,81.002z"/>
<g>
	<g>
		<path d="M246.319,80.191c0.971,0,1.912-0.039,2.847,0.018c0.451,0.027,0.946,0.145,1.327,0.376
			c1.899,1.155,1.87,2.571-0.036,3.674c-0.167,0.099-0.314,0.229-0.467,0.343c0.336,0.603,0.829,1.139,0.933,1.741
			c0.255,1.479-0.646,2.675-2.291,2.935c-1.516,0.237-3.072,0.225-4.714,0.328C244.981,86.352,246.67,83.473,246.319,80.191z
			 M247.108,84.748c-0.154,0.363-0.302,0.641-0.391,0.936c-0.225,0.751-0.375,1.526-0.643,2.261
			c-0.336,0.922,0.247,0.94,0.834,0.893c1.177-0.097,2.295-1.134,2.373-2.135C249.361,85.676,248.8,85.152,247.108,84.748z
			 M247.169,84.036c0.719,0,1.073,0.019,1.424-0.004c0.982-0.062,1.88-1.091,1.604-2.021c-0.128-0.431-0.658-0.822-1.099-1.046
			c-0.225-0.114-0.86,0.087-0.961,0.306C247.757,82.1,247.519,82.994,247.169,84.036z"/>
		<path d="M289.688,83.582c0.131-0.954,0.237-1.912,0.405-2.857c0.052-0.289,0.212-0.688,0.434-0.785
			c0.271-0.121,0.746-0.092,0.967,0.084c0.169,0.134,0.172,0.617,0.093,0.903c-0.438,1.593-0.979,3.158-1.367,4.759
			c-0.173,0.719-0.02,1.509-0.107,2.255c-0.066,0.567-0.28,1.119-0.421,1.649c-1.862-0.099-2.306-0.919-1.547-2.421
			c0.467-0.926,0.779-1.929,1.163-2.901c-1.179-0.528-1.84-0.141-2.335,0.646c-0.336,0.531-0.638,1.086-0.929,1.644
			c-0.396,0.761-0.339,1.406,0.405,1.979c0.241,0.186,0.279,0.633,0.411,0.961c-0.393,0.025-0.836,0.183-1.167,0.053
			c-1.104-0.429-1.459-1.493-0.99-2.813c0.543-1.526,1.551-2.695,3.009-3.368c0.432-0.199,1.068,0.046,1.611,0.088
			C289.445,83.499,289.566,83.54,289.688,83.582z"/>
		<path d="M300.527,86.883c0.202,0.526,0.311,1.426,0.626,1.506c0.824,0.208,1.738,0.06,2.632,0.052
			c-0.361,0.568-1.029,1.102-1.999,1.188c-1.016,0.092-1.848-0.295-2.198-1.284c-0.546-1.541,0.179-2.835,1.126-3.929
			c0.791-0.914,1.874-1.529,3.167-1.1c0.413,0.137,0.938,0.547,1.017,0.916c0.084,0.393-0.173,1.108-0.501,1.295
			c-1.086,0.612-2.271,1.051-3.419,1.556C300.827,87.017,300.678,86.949,300.527,86.883z M303.688,84.246
			c-1.606-0.539-2.484,0.158-2.65,2.26C302.106,85.85,303.541,85.961,303.688,84.246z"/>
		<path d="M315.773,83.292c-0.789,1.062-0.523,1.819,0.328,2.457c0.031,0.022,0.058,0.056,0.084,0.085
			c1.023,1.101,1.27,2.097,0.701,2.851c-0.646,0.859-2.579,1.357-3.588,0.926c-0.927-0.397-0.938-1.028-0.001-1.896
			c0.235,0.314,0.405,0.749,0.715,0.905c0.379,0.19,1.009,0.342,1.283,0.152c0.258-0.178,0.384-0.902,0.234-1.24
			c-0.279-0.634-0.841-1.136-1.209-1.738C313.7,84.777,314.313,83.566,315.773,83.292z"/>
		<path d="M260.94,83.376c1.831-0.106,2.169,0.3,1.563,2.165c-0.387,1.189-0.876,2.351-1.403,3.486
			c-0.117,0.252-0.584,0.342-0.89,0.506c-0.069-0.326-0.257-0.682-0.185-0.973c0.257-1.025,0.674-2.015,0.889-3.047
			C261.052,84.855,260.94,84.146,260.94,83.376z"/>
		<path d="M274.713,89.627c-1.605-0.228-1.607-0.306-1.169-1.893c0.378-1.367,0.598-2.779,0.888-4.172
			c-0.11-0.054-0.221-0.106-0.331-0.16c0.566,0,1.133,0,1.848,0C275.536,85.479,275.135,87.5,274.713,89.627z"/>
		<path d="M263.003,84.575c0.523-0.468,1.046-0.933,1.569-1.399c0.256,0.338,0.771,0.719,0.724,1.008
			c-0.208,1.271-1.238,0.686-1.962,0.793C263.224,84.842,263.114,84.709,263.003,84.575z"/>
		<path d="M276.134,82.672c-0.445-0.669-0.763-1.148-1.082-1.628c0.361-0.157,0.844-0.545,1.063-0.431
			C276.883,81.018,276.75,81.667,276.134,82.672z"/>
		<path d="M317.2,85.111c-0.338-0.619-0.676-1.238-1.015-1.858c0.089-0.101,0.177-0.2,0.265-0.299
			c0.483,0.36,1.072,0.647,1.406,1.114c0.157,0.222-0.173,0.791-0.281,1.201C317.45,85.218,317.325,85.165,317.2,85.111z"/>
	</g>
</g>
</svg>
