<?xml version="1.0" encoding="utf-8"?>
<!-- Generator: Adobe Illustrator 16.0.0, SVG Export Plug-In . SVG Version: 6.00 Build 0)  -->
<!DOCTYPE svg PUBLIC "-//W3C//DTD SVG 1.1//EN" "http://www.w3.org/Graphics/SVG/1.1/DTD/svg11.dtd">
<svg version="1.1" id="Layer_1" xmlns="http://www.w3.org/2000/svg" xmlns:xlink="http://www.w3.org/1999/xlink" x="0px" y="0px"
	 width="612px" height="170px" viewBox="0 311 612 170" enable-background="new 0 311 612 170" xml:space="preserve">
<path fill="#090909" d="M205.62,392.604c2.648-39.411,34.495-69.441,72.633-69.287c36.863,0.149,69.322,29.661,72.322,65.753
	c3.223,38.782-22.868,72.764-60.194,78.399c-39.755,6.002-74.889-17.362-83.381-55.797
	C205.698,405.779,206.003,399.533,205.62,392.604 M331.816,409.509c4.361-22.816-0.776-42.844-19.178-57.714
	c-16.665-13.465-35.903-15.582-55.741-7.931c-23.082,8.902-37.545,34.768-33.87,59.172c4.103,27.236,24.33,46.639,50.875,48.802
	C300.302,453.988,322.427,438.301,331.816,409.509z"/>
<path fill="#0E0E0E" d="M544.86,449.356c17.223,0.001,33.438,0.001,50.104,0.001c0,5.637,0,10.254,0,15.569
	c-24.246,0-48.536,0-73.56,0c0-45.699,0-91.626,0-138.042c24.502,0,48.78,0,73.547,0c0,4.973,0,9.59,0,15.188
	c-18.504,0-37.016,0-56.091,0c0,13.355,0,25.745,0,38.959c17.893,0,35.75,0,54.224,0c0,5.646,0,10.496,0,16.193
	c-18.059,0-35.921,0-54.792,0c0,16.679-0.128,32.546,0.24,48.4C538.563,446.909,541.999,448.113,544.86,449.356z"/>
<path fill="#080808" d="M439.14,447.737c-3.354,8.246-6.408,15.765-10.286,25.311c-20.409-49.5-40.181-97.453-60.029-145.594
	c18.125-2.57,18.148-2.58,24.329,12.833c11.566,28.844,23.103,57.7,35.566,88.837c6.472-15.947,12.109-29.735,17.664-43.558
	c5.935-14.766,11.773-29.57,17.685-44.344c6.195-15.485,6.212-15.479,24.704-14.19C472.195,367.346,455.816,407.179,439.14,447.737z
	"/>
<path fill="#020202" d="M145.805,393.96c0,18.674,0,36.329,0,55.209c13.933,0,27.633,0,41.706,0c0,5.87,0,10.517,0,15.785
	c-19.381,0-38.849,0-58.734,0c0-45.958,0-91.658,0-137.931c5.391,0,10.654,0,17.029,0
	C145.805,348.984,145.805,370.962,145.805,393.96z"/>
<path fill="#0D0D0D" d="M38.504,331.268c0.005,44.986,0.005,89,0.005,133.681c-5.807,0-11.067,0-17.102,0
	c0-45.548,0-91.397,0-139.963C27.437,326.858,32.967,328.576,38.504,331.268z"/>
<path fill="#FCFCFC" d="M284.787,403.467c0.482-3.542,1.634-6.794,2.786-10.047c1.038,0.544,2.075,1.089,3.112,1.633
	C288.942,397.954,287.2,400.855,284.787,403.467z"/>
<path fill="#FCFCFC" d="M318.645,400.008c1.978-1.819,3.819-2.994,5.662-4.168c0.392,1.287,0.783,2.574,1.175,3.861
	C323.157,400.018,320.833,400.335,318.645,400.008z"/>
<path fill="#FCFCFC" d="M307.691,398.462c-1.871,0.864-3.85,1.097-5.828,1.329c0.066-1.163,0.132-2.327,0.198-3.49
	C303.902,396.811,305.743,397.32,307.691,398.462z"/>
<path fill="#FCFCFC" d="M237.392,392.806c1.76,0.045,2.951-0.045,4.142-0.136c-0.125,0.896-0.251,1.792-0.377,2.688
	c-2.685-0.563-5.37-1.125-8.056-1.688c0.214-0.837,0.428-1.674,0.642-2.511C234.769,391.663,235.796,392.167,237.392,392.806z"/>
<path fill="#FCFCFC" d="M233.827,399.04c0.811,1.624,1.019,2.974,1.226,4.323c-1.166-0.142-2.332-0.283-3.497-0.425
	C232.111,401.548,232.667,400.156,233.827,399.04z"/>
<path fill="#FCFCFC" d="M269.662,401.723c-0.614-1.129-0.615-2.131-0.616-3.133c1.109,0.29,2.219,0.579,3.329,0.868
	C271.675,400.255,270.975,401.052,269.662,401.723z"/>
<path fill="#FCFCFC" d="M252.996,395.953c1.271,0.073,2.543,0.147,5.543,0.32c-2.415,1.779-3.758,2.768-5.101,3.757
	c-0.169-0.933-0.339-1.865-0.494-3.414C252.958,396,252.996,395.953,252.996,395.953z"/>
<path fill="#FCFCFC" d="M252.934,396.02c-0.26-0.288-0.497-0.595-0.733-0.902c0.182,0.095,0.363,0.189,0.67,0.56
	C252.996,395.953,252.958,396,252.934,396.02z"/>
<path fill="#FCFCFC" d="M292.813,391.013C292.691,391.087,292.935,390.938,292.813,391.013z"/>
<path fill="#FCFCFC" d="M270.366,391.002C270.253,391.07,270.479,390.935,270.366,391.002z"/>
<g>
	<g>
		<path fill-rule="evenodd" clip-rule="evenodd" fill="#FFFFFF" d="M238.24,407.232c0-8,0-16,0-24c28,0,56,0,84,0c0,8,0,16,0,24
			C294.24,407.232,266.24,407.232,238.24,407.232z M246.319,390.192c0.351,3.279-1.338,6.159-2.401,9.413
			c1.642-0.104,3.198-0.09,4.714-0.328c1.644-0.259,2.546-1.456,2.291-2.934c-0.104-0.604-0.597-1.14-0.933-1.742
			c0.153-0.113,0.3-0.244,0.467-0.342c1.906-1.104,1.935-2.52,0.036-3.674c-0.381-0.231-0.876-0.349-1.327-0.376
			C248.231,390.153,247.291,390.192,246.319,390.192z M289.688,393.582c-0.122-0.042-0.243-0.083-0.365-0.125
			c-0.543-0.042-1.18-0.287-1.611-0.088c-1.458,0.673-2.466,1.842-3.009,3.368c-0.469,1.319-0.114,2.384,0.99,2.813
			c0.331,0.13,0.774-0.027,1.167-0.053c-0.132-0.328-0.17-0.775-0.411-0.961c-0.744-0.572-0.802-1.219-0.405-1.979
			c0.291-0.558,0.593-1.111,0.929-1.644c0.495-0.787,1.156-1.176,2.335-0.646c-0.384,0.973-0.696,1.976-1.163,2.901
			c-0.759,1.502-0.315,2.322,1.547,2.421c0.141-0.53,0.354-1.082,0.421-1.65c0.088-0.746-0.065-1.536,0.107-2.254
			c0.388-1.602,0.93-3.167,1.367-4.759c0.079-0.286,0.076-0.77-0.093-0.904c-0.221-0.175-0.696-0.205-0.967-0.084
			c-0.222,0.099-0.382,0.496-0.434,0.785C289.926,391.67,289.819,392.628,289.688,393.582z M300.527,396.883
			c0.15,0.066,0.3,0.134,0.45,0.2c1.147-0.505,2.333-0.942,3.419-1.556c0.328-0.186,0.585-0.902,0.501-1.295
			c-0.079-0.369-0.604-0.779-1.017-0.916c-1.293-0.43-2.376,0.186-3.167,1.1c-0.947,1.094-1.672,2.388-1.126,3.929
			c0.351,0.989,1.183,1.376,2.198,1.284c0.97-0.088,1.638-0.62,1.999-1.189c-0.894,0.008-1.808,0.157-2.632-0.051
			C300.838,398.309,300.729,397.409,300.527,396.883z M315.773,393.292c-1.46,0.275-2.073,1.486-1.451,2.501
			c0.368,0.603,0.93,1.104,1.209,1.738c0.149,0.338,0.023,1.063-0.234,1.24c-0.275,0.189-0.904,0.039-1.283-0.152
			c-0.31-0.156-0.479-0.591-0.715-0.905c-0.938,0.866-0.926,1.497,0.001,1.895c1.009,0.433,2.941-0.065,3.588-0.925
			c0.567-0.754,0.322-1.75-0.701-2.851c-0.027-0.029-0.053-0.062-0.084-0.085C315.25,395.11,314.984,394.354,315.773,393.292z
			 M260.94,393.376c0,0.77,0.112,1.479-0.025,2.138c-0.215,1.033-0.632,2.021-0.889,3.048c-0.073,0.291,0.116,0.646,0.185,0.972
			c0.306-0.164,0.773-0.254,0.89-0.506c0.526-1.136,1.016-2.297,1.403-3.486C263.109,393.676,262.771,393.27,260.94,393.376z
			 M274.713,399.627c0.422-2.127,0.823-4.148,1.235-6.224c-0.714,0-1.281,0-1.848,0c0.11,0.054,0.221,0.107,0.331,0.16
			c-0.29,1.393-0.51,2.805-0.888,4.172C273.105,399.321,273.107,399.399,274.713,399.627z M263.003,394.575
			c0.11,0.134,0.22,0.267,0.33,0.4c0.725-0.107,1.754,0.478,1.962-0.792c0.047-0.289-0.468-0.67-0.724-1.008
			C264.049,393.643,263.526,394.108,263.003,394.575z M276.134,392.672c0.616-1.005,0.749-1.654-0.02-2.059
			c-0.218-0.115-0.701,0.273-1.062,0.431C275.371,391.523,275.689,392.003,276.134,392.672z M317.2,395.112
			c0.125,0.053,0.25,0.105,0.375,0.157c0.109-0.41,0.439-0.98,0.281-1.201c-0.334-0.467-0.922-0.754-1.406-1.115
			c-0.088,0.1-0.176,0.199-0.264,0.299C316.524,393.873,316.862,394.492,317.2,395.112z"/>
		<path fill-rule="evenodd" clip-rule="evenodd" d="M246.319,390.192c0.971,0,1.912-0.04,2.847,0.017
			c0.451,0.027,0.946,0.145,1.327,0.376c1.899,1.155,1.87,2.571-0.036,3.674c-0.167,0.098-0.314,0.229-0.467,0.342
			c0.336,0.603,0.829,1.139,0.933,1.742c0.255,1.478-0.646,2.675-2.291,2.934c-1.516,0.238-3.072,0.225-4.714,0.328
			C244.981,396.352,246.67,393.472,246.319,390.192z M247.108,394.748c-0.154,0.363-0.302,0.641-0.391,0.936
			c-0.225,0.751-0.375,1.526-0.643,2.26c-0.336,0.922,0.247,0.941,0.834,0.893c1.177-0.097,2.295-1.134,2.373-2.135
			C249.361,395.676,248.8,395.152,247.108,394.748z M247.169,394.036c0.719,0,1.073,0.019,1.424-0.004
			c0.982-0.062,1.88-1.091,1.604-2.02c-0.128-0.431-0.658-0.822-1.099-1.046c-0.225-0.115-0.86,0.086-0.961,0.305
			C247.757,392.1,247.519,392.994,247.169,394.036z"/>
		<path fill-rule="evenodd" clip-rule="evenodd" d="M289.688,393.582c0.131-0.954,0.237-1.912,0.405-2.858
			c0.052-0.289,0.212-0.687,0.434-0.785c0.271-0.121,0.746-0.091,0.967,0.084c0.169,0.134,0.172,0.618,0.093,0.904
			c-0.438,1.592-0.979,3.158-1.367,4.759c-0.173,0.718-0.02,1.508-0.107,2.254c-0.066,0.568-0.28,1.12-0.421,1.65
			c-1.862-0.099-2.306-0.919-1.547-2.421c0.467-0.926,0.779-1.929,1.163-2.901c-1.179-0.529-1.84-0.141-2.335,0.646
			c-0.336,0.532-0.638,1.086-0.929,1.644c-0.396,0.76-0.339,1.406,0.405,1.979c0.241,0.186,0.279,0.633,0.411,0.961
			c-0.393,0.025-0.836,0.183-1.167,0.053c-1.104-0.429-1.459-1.493-0.99-2.813c0.543-1.526,1.551-2.695,3.009-3.368
			c0.432-0.199,1.068,0.046,1.611,0.088C289.445,393.499,289.566,393.54,289.688,393.582z"/>
		<path fill-rule="evenodd" clip-rule="evenodd" d="M300.527,396.883c0.202,0.526,0.311,1.426,0.626,1.506
			c0.824,0.208,1.738,0.059,2.632,0.051c-0.361,0.569-1.029,1.102-1.999,1.189c-1.016,0.092-1.848-0.295-2.198-1.284
			c-0.546-1.541,0.179-2.835,1.126-3.929c0.791-0.914,1.874-1.529,3.167-1.1c0.413,0.137,0.938,0.547,1.017,0.916
			c0.084,0.393-0.173,1.109-0.501,1.295c-1.086,0.613-2.271,1.051-3.419,1.556C300.827,397.017,300.678,396.949,300.527,396.883z
			 M303.688,394.246c-1.606-0.539-2.484,0.158-2.65,2.26C302.106,395.849,303.541,395.961,303.688,394.246z"/>
		<path fill-rule="evenodd" clip-rule="evenodd" d="M315.773,393.292c-0.789,1.062-0.523,1.819,0.329,2.457
			c0.031,0.023,0.057,0.056,0.084,0.085c1.023,1.101,1.269,2.097,0.701,2.851c-0.646,0.859-2.579,1.357-3.588,0.925
			c-0.927-0.397-0.938-1.028-0.001-1.895c0.235,0.314,0.405,0.749,0.715,0.905c0.379,0.191,1.008,0.342,1.283,0.152
			c0.258-0.177,0.384-0.902,0.234-1.24c-0.279-0.634-0.841-1.136-1.209-1.738C313.7,394.777,314.313,393.566,315.773,393.292z"/>
		<path fill-rule="evenodd" clip-rule="evenodd" d="M260.94,393.376c1.831-0.106,2.169,0.3,1.563,2.165
			c-0.387,1.189-0.876,2.351-1.403,3.486c-0.117,0.252-0.584,0.342-0.89,0.506c-0.069-0.326-0.257-0.681-0.185-0.972
			c0.257-1.026,0.674-2.015,0.889-3.048C261.052,394.855,260.94,394.146,260.94,393.376z"/>
		<path fill-rule="evenodd" clip-rule="evenodd" d="M274.713,399.627c-1.605-0.228-1.607-0.306-1.169-1.893
			c0.378-1.367,0.598-2.779,0.888-4.172c-0.11-0.053-0.221-0.106-0.331-0.16c0.566,0,1.133,0,1.848,0
			C275.536,395.479,275.135,397.5,274.713,399.627z"/>
		<path fill-rule="evenodd" clip-rule="evenodd" d="M263.003,394.575c0.523-0.467,1.046-0.933,1.569-1.399
			c0.256,0.338,0.771,0.719,0.724,1.008c-0.208,1.27-1.238,0.685-1.962,0.792C263.224,394.842,263.114,394.709,263.003,394.575z"/>
		<path fill-rule="evenodd" clip-rule="evenodd" d="M276.134,392.672c-0.445-0.669-0.763-1.148-1.082-1.628
			c0.361-0.157,0.844-0.545,1.062-0.431C276.883,391.018,276.75,391.667,276.134,392.672z"/>
		<path fill-rule="evenodd" clip-rule="evenodd" d="M317.2,395.112c-0.338-0.62-0.676-1.239-1.014-1.859
			c0.088-0.1,0.176-0.2,0.264-0.299c0.484,0.361,1.072,0.648,1.406,1.115c0.158,0.221-0.172,0.791-0.281,1.201
			C317.45,395.218,317.325,395.165,317.2,395.112z"/>
		<path fill-rule="evenodd" clip-rule="evenodd" fill="#FFFFFF" d="M247.108,394.748c1.692,0.404,2.252,0.928,2.173,1.953
			c-0.077,1.001-1.196,2.038-2.373,2.135c-0.587,0.049-1.17,0.029-0.834-0.893c0.267-0.733,0.418-1.509,0.643-2.26
			C246.806,395.389,246.955,395.111,247.108,394.748z"/>
		<path fill-rule="evenodd" clip-rule="evenodd" fill="#FFFFFF" d="M247.169,394.036c0.349-1.042,0.587-1.936,0.968-2.765
			c0.101-0.219,0.736-0.419,0.961-0.305c0.441,0.224,0.971,0.615,1.099,1.046c0.276,0.929-0.622,1.958-1.604,2.02
			C248.242,394.055,247.889,394.036,247.169,394.036z"/>
		<path fill-rule="evenodd" clip-rule="evenodd" fill="#FFFFFF" d="M303.688,394.246c-0.146,1.715-1.581,1.603-2.65,2.26
			C301.203,394.404,302.081,393.707,303.688,394.246z"/>
	</g>
</g>
</svg>
